/* XPM */
static char *b675c422bb564b4c9b8ee03959b3b2e4[] = {
/* columns rows colors chars-per-pixel */
"64 64 164 2 ",
"   c #A3391F",
".  c #A43B24",
"X  c #A93A26",
"o  c #A43E28",
"O  c #A93E2C",
"+  c #A5412C",
"@  c #B54722",
"#  c #B64824",
"$  c #B64B2B",
"%  c #A64736",
"&  c #AA4536",
"*  c #A64837",
"=  c #AB4738",
"-  c #A74A3A",
";  c #AC4B3D",
":  c #B75238",
">  c #C34324",
",  c #C64D25",
"<  c #C3462A",
"1  c #C54C2C",
"2  c #CA5223",
"3  c #C6502C",
"4  c #CA552A",
"5  c #CB5B37",
"6  c #C5513B",
"7  c #D0673B",
"8  c #D1693F",
"9  c #AB594D",
"0  c #BB614E",
"q  c #BD6958",
"w  c #B16A62",
"e  c #BF7061",
"r  c #B3726A",
"t  c #B57770",
"y  c #C75E4D",
"u  c #CB664C",
"i  c #CD684E",
"p  c #D16B43",
"a  c #D26F4B",
"s  c #D2714D",
"d  c #C86151",
"f  c #CE6D54",
"g  c #CA6B5E",
"h  c #D37554",
"j  c #D37758",
"k  c #D47A5C",
"l  c #CB6F62",
"z  c #CD7361",
"x  c #CC766C",
"c  c #D17762",
"v  c #D57E63",
"b  c #D27D6B",
"n  c #C37D71",
"m  c #CE7D73",
"M  c #B9807A",
"N  c #D58167",
"B  c #D6846C",
"V  c #CF837A",
"C  c #D38271",
"Z  c #D78A74",
"A  c #D88C76",
"S  c #D5897A",
"D  c #D98E79",
"F  c #D9917E",
"G  c #BB8781",
"H  c #BC8984",
"J  c #BF8E89",
"K  c #BF908A",
"L  c #C88D84",
"P  c #D38F86",
"I  c #C0918C",
"U  c #D79184",
"Y  c #DA9582",
"T  c #D5948C",
"R  c #DC9C8C",
"E  c #C39792",
"W  c #C59B97",
"Q  c #CE9B93",
"!  c #C69D99",
"~  c #D69A93",
"^  c #DB9E93",
"/  c #D89F99",
"(  c #C7A09C",
")  c #DEA395",
"_  c #D0A098",
"`  c #DFA699",
"'  c #E0AA9D",
"]  c #CBA7A3",
"[  c #CDAAA7",
"{  c #CEAEAB",
"}  c #D3A7A0",
"|  c #DEADA6",
" . c #DEAEA8",
".. c #D1B2AF",
"X. c #DEB1AC",
"o. c #DAB5B0",
"O. c #D4B9B6",
"+. c #DCBBB6",
"@. c #D5BBB9",
"#. c #DEBEB9",
"$. c #E1AFA4",
"%. c #E2B0A5",
"&. c #E3B5AA",
"*. c #E5B9AE",
"=. c #E2B7B0",
"-. c #E5BBB2",
";. c #E3BDB9",
":. c #DDC1BE",
">. c #E7C0B7",
",. c #E5C1BB",
"<. c #E8C4BC",
"1. c #DDC5C2",
"2. c #DFC9C7",
"3. c #E5C6C2",
"4. c #E9C7C0",
"5. c #E5C9C5",
"6. c #EBCBC4",
"7. c #E4CDCA",
"8. c #EBCEC9",
"9. c #E4D1CF",
"0. c #EDD2CC",
"q. c #E4D4D2",
"w. c #EED6D1",
"e. c #E6D8D7",
"r. c #EED8D5",
"t. c #E7D9D8",
"y. c #EEDEDB",
"u. c #F0D9D4",
"i. c #F0DAD6",
"p. c #F0DBD6",
"a. c #F0DAD5",
"s. c #F0DAD6",
"d. c #F0DCD9",
"f. c #F0DDDA",
"g. c #F2DFDB",
"h. c #F2DEDA",
"j. c #F1DFDD",
"k. c #F2DFDC",
"l. c #F1DDDA",
"z. c #EEE0DE",
"x. c #F3E1DD",
"c. c #F2E0DD",
"v. c #F2E1DE",
"b. c #F3E2DE",
"n. c #F2E1DE",
"m. c #EEE3E2",
"M. c #F1E3E1",
"N. c #F3E5E3",
"B. c #F4E4E0",
"V. c #F4E4E1",
"C. c #F4E5E2",
"Z. c #F4E5E3",
"A. c #F5E6E3",
"S. c #F3E5E4",
"D. c #F3E6E5",
"F. c #F5E7E5",
"G. c #F5E7E4",
"H. c #F4E5E3",
"J. c #F5E8E6",
"K. c #F6E9E7",
"L. c #F6E9E6",
"P. c #F6EAE8",
"I. c #F7EBE8",
"U. c #F5EAE9",
/* pixels */
"w.| | | | | | 5.8.&.&.&.&.&.&.w.<.&.&.&.&.&.&.h.*.| | | | | | c.&.&.&.&.&.&.&.A.&.&.&.&.&.&.&.c.| | | | | | $.A.&.&.&.&.&.&.*.t.",
"| < < < < < < T ` p p p p p p &.D p p p p p p <.i 4 4 4 4 4 4 4.8 p p p p p p 8.p p p p p p p <.4 4 4 4 4 4 2 8.p p p p p p s O.",
"| < < < < < < T ` p p p p p p &.D p p p p p p <.i 4 4 4 4 4 4 4.8 p p p p p p 8.p p p p p p p <.4 4 4 4 4 4 2 8.p p p p p p s O.",
"j.5.5.8.5.5.5.r.h.8.8.0.8.8.8.c.w.8.8.0.8.8.8.A.8.6.8.8.6.6.6.J.8.8.0.0.8.8.8.I.8.8.0.0.8.8.8.G.6.6.8.8.6.6.6.I.8.8.0.8.8.8.0.m.",
"8 8 7 7.X X X X X X & 5.# # # # # # 0 <.8 8 8 8 8 8 Y -.8 8 8 8 8 8 R ' 8 8 8 8 8 8 &.P > > > > > > X.Z 8 8 8 8 8 8 6.i 2 2 2 2 ",
"p p 8 5.O O O O O O = 5.$ $ $ $ $ $ 0 <.p p p p p p Y -.p p p p p p R ' p p p p p p &.P < < < < < < X.Z p p p p p p 6.u 4 4 4 4 ",
"p p 8 7.X X X X X X ; 7.# # # # # # q <.p p p p p p Y -.p p p p p p ) ' p p p p p p &.T > > > > > > o.D p p p p p p 8.f 2 2 2 2 ",
"j.<.<.<.<.<.<.u.i.<.<.<.<.<.<.h.0.<.<.<.<.<.<.A.3.;.;.;.;.;.;.D.,.,.;.;.,.,.,.I.<.<.<.<.<.<.<.G.,.,.;.;.,.,.,.I.<.<.<.<.<.<.6.A.",
"&.p p p p p p ) ` p p p p p p &.D p p p p p p <.y < < < < < < 3.2 4 4 4 4 4 4 6.p p p p p p p <.4 4 4 4 4 4 2 8.p p p p p p s <.",
"&.p p p p p p ) ` p p p p p p &.D p p p p p p <.y < < < < < < 3.2 4 4 4 4 4 4 6.p p p p p p p <.4 4 4 4 4 4 2 8.p p p p p p s <.",
"h.<.<.<.<.<.<.w.w.<.<.<.<.<.<.h.0.<.<.<.<.<.<.A.,.;.;.;.;.;.;.D.;.;.;.;.;.;.;.J.<.<.<.<.<.<.<.G.;.;.;.;.;.;.;.J.<.<.<.<.<.<.4.A.",
"- - % 0.s s s s s s j 8.6 6 6 6 6 6 g 4.s s s s s s R -.s s s s s s ` ( - - - - - - [ ) s s s s s s -.m 6 6 6 6 6 6 5.N s s s s ",
"o o . 8.p p p p p p a 5.< < < < < < y <.p p p p p p Y -.p p p p p p R W o o o o o o ] R p p p p p p -.x < < < < < < 3.k p p p p ",
"o o . 8.p p p p p p s 5.< < < < < < d <.p p p p p p Y -.p p p p p p ) ! o o o o o o ] R p p p p p p -.x < < < < < < 3.k p p p p ",
"r.,.,.6.<.<.<.0.w.<.<.6.,.,.,.i.8.,.<.6.<.<.<.c.,.#.:.:.#.#.#.M.<.<.<.<.,.,.,.N.,.,.<.<.<.<.<.A.<.<.6.<.,.,.,.A.,.,.6.<.<.<.<.c.",
"&.p p p p p p ) ` p p p p p p &.D p p p p p p <.0 $ $ $ $ $ $ 3.8 p p p p p p 8.p p p p p p p <.p p p p p p 8 0.p p p p p p s <.",
"&.p p p p p p ) ` p p p p p p &.D p p p p p p <.0 $ $ $ $ $ $ 3.8 p p p p p p 8.p p p p p p p <.p p p p p p 8 0.p p p p p p s <.",
"i.-.-.-.-.-.-.0.0.-.-.-.-.-.-.i.6.-.-.-.-.-.-.c.+.o.o.o.o.o.o.M.-.-.-.-.-.-.-.G.-.-.-.-.-.-.-.A.-.-.-.-.-.-.-.G.-.-.-.-.-.-.>.c.",
"B B B w.c c c c c c b w.B B B B B B Y 5.l l l l l l ~ <.B B B B B B %.*.B B B B B B -.` c c c c c c ,.J w w w w w w 7.Y B B B B ",
"p p 8 8.4 4 4 4 4 4 5 8.p p p p p p k ;.< < < < < < V -.p p p p p p R ' p p p p p p &.U 4 4 4 4 4 4 *.r o o o o o o 1.k p p p p ",
"p p 8 8.4 4 4 4 4 4 5 8.p p p p p p k ;.< < < < < < V -.p p p p p p R ' p p p p p p &.U 4 4 4 4 4 4 *.r o o o o o o 1.k p p p p ",
"r.:.1.9.:.:.:.9.0.4.6.0.6.6.6.i.0.6.8.0.4.4.4.h.6.4.8.0.6.6.6.c.4.<.8.8.<.<.<.c.6.6.0.8.4.4.4.j.,.,.8.3.,.,.,.z.3.3.0.6.6.6.6.h.",
"[ o o o o o o I ` p p p p p p &.D p p p p p p <.k p p p p p p 6.2 4 4 4 4 4 4 6.p p p p p p p ,.< < < < < < > 8.p p p p p p s ;.",
"[ o o o o o o I ` p p p p p p &.D p p p p p p <.k p p p p p p 6.2 4 4 4 4 4 4 6.p p p p p p p ,.< < < < < < > 8.p p p p p p s ;.",
"7.! ! ! ! ! ! @.6.' ' ' ' ' ' 0.-.' ' ' ' ' ' i.&.' ' ' ' ' ' h.` ` ` ` ` ` ` c.' ' ' ' ` ' ' h./ / / / / / _ c.' ' ' ' ' ' %.r.",
"P P P h.R R R R R R R e.H H H H H H E 0.R R R R R R &.8.R R R R R R -.<.R R R R R R 4.-.R R R R R R 8.$.R R R R R R i.` R R R R ",
"3 3 , 8.p p p p p p a 2.o o o o o o 9 <.p p p p p p Y -.p p p p p p R ' p p p p p p &.R p p p p p p -.Z p p p p p p 6.k p p p p ",
"3 3 , 8.p p p p p p a 2.o o o o o o 9 <.p p p p p p Y -.p p p p p p R ' p p p p p p &.R p p p p p p -.Z p p p p p p 6.k p p p p ",
"0.,.,.i.<.<.<.8.8.<.<.w.#.#.#.7.3.#.3.w.<.<.<.w.<.<.6.0.<.<.<.r.,.,.8.8.,.,.,.r.,.,.7.5.,.,.,.w.,.,.0.6.,.,.<.r.#.#.q.,.#.#.,.w.",
"&.p p p p p p ) ` p p p p p p &.D p p p p p p <.k p p p p p p 6.2 4 4 4 4 4 4 5.$ $ $ $ $ $ $ ,.4 4 4 4 4 4 2 2.o o o o o o * <.",
"&.p p p p p p ) ` p p p p p p &.D p p p p p p <.k p p p p p p 6.2 4 4 4 4 4 4 5.$ $ $ $ $ $ $ ,.4 4 4 4 4 4 2 2.o o o o o o * <.",
"6.R R R R R R -.-.R R R R R R 6.%.R R R R R R w.` R R R R R R i.U U U U U U U r.L L L L L L L q.U U U U U U U r.H H H H H H K 0.",
"` ` ` y.Q Q Q Q Q Q _ h.` ` ` ` ` ` %.w.^ ^ ^ ^ ^ ^ =.0.` ` ` ` ` ` ,.6.` ` ` ` ` ` 8.<.` ` ` ` ` ` 0.*.` ` ` ` ` ` h.%.` ` ` ` ",
"p p 8 5.$ $ $ $ $ $ : 8.p p p p p p k ;.4 4 4 4 4 4 S -.p p p p p p R ' p p p p p p &.R p p p p p p -.Z p p p p p p 6.k p p p p ",
"p p 8 5.$ $ $ $ $ $ : 8.p p p p p p k ;.4 4 4 4 4 4 S -.p p p p p p R ' p p p p p p &.R p p p p p p -.Z p p p p p p 6.k p p p p ",
"0.<.<.y.,.,.,.5.5.;.,.d.,.,.,.8.6.<.6.r.,.,.,.0.,.;.5.q.,.,.,.0.<.<.0.0.<.<.<.w.<.<.0.8.<.<.<.w.,.,.q.5.,.,.,.w.<.<.i.6.,.,.4.0.",
"&.p p p p p p ) ^ 4 4 4 4 4 4 &.D p p p p p p <.9 o o o o o o 1.8 p p p p p p 8.p p p p p p p ,.$ $ $ $ $ $ @ 8.p p p p p p s <.",
"&.p p p p p p ) ^ 4 4 4 4 4 4 &.D p p p p p p <.9 o o o o o o 1.8 p p p p p p 8.p p p p p p p ,.$ $ $ $ $ $ @ 8.p p p p p p s <.",
"<.D D D D D D &.&.C C C C C C ,.' D D D D D D 0.G t t t t t t 9.D D D D D D D i.D D D D D D D 0.n n n n n n n r.D D D D D D Y 8.",
"{ { { G.-.-.-.-.-.-.-.A.-.-.-.-.-.-.<.c.-.-.-.-.-.-.6.i.-.-.-.-.-.-.8.0.-.-.-.-.-.-.w.5.X.X.X.X.X.X.r.<.-.-.-.-.-.-.B.-.*.*.*.*.",
"o o . 8.p p p p p p a 8.p p p p p p k <.p p p p p p Y -.p p p p p p R ' p p p p p p &.P < < < < < < X.Z p p p p p p 6.u 4 4 4 4 ",
"o o . 8.p p p p p p a 8.p p p p p p k <.p p p p p p Y -.p p p p p p R ' p p p p p p &.P < < < < < < X.Z p p p p p p 6.u 4 4 4 4 ",
"1.:.:.J.6.6.6.6.6.6.6.G.6.6.6.8.6.4.8.c.4.4.4.8.6.6.0.h.6.6.6.8.6.6.w.i.6.6.6.8.6.6.h.w.,.,.,.5.,.,.h.0.6.6.6.8.6.6.A.6.<.<.4.6.",
"&.p p p p p p ) ` p p p p p p &.m > > > > > > ;.k p p p p p p 6.8 p p p p p p 8.p p p p p p p 6.p p p p p p 8 0.p p p p p p s <.",
"&.p p p p p p ) ` p p p p p p &.m < < < < < < ;.k p p p p p p 6.8 p p p p p p 8.p p p p p p p <.p p p p p p 8 0.p p p p p p s <.",
"-.p p p p p p ` ' p p p p p p *.V < < < < < < ,.v p p p p p p 8.p p p p p p p 0.p p p p p p p 8.p p p p p p p 0.p p p p p p j <.",
"<.<.<.U.#.#.#.#.#.#.:.J.<.<.<.<.<.<.6.M.;.;.;.;.;.;.8.c.<.<.<.<.<.<.w.q.@.@.@.@.@.@.e.w.<.<.<.<.<.<.c.8.<.<.<.<.<.<.G.3.;.;.;.;.",
"p p 8 5.$ $ $ $ $ $ : 8.p p p p p p k ;.< < < < < < V -.p p p p p p R W o o o o o o ] R p p p p p p -.Z p p p p p p 6.u 3 3 3 3 ",
"p p 8 5.$ $ $ $ $ $ : 8.p p p p p p k ;.< < < < < < V -.p p p p p p R W o o o o o o ] R p p p p p p -.Z p p p p p p 6.u 3 3 3 3 ",
"<.,.,.D.+.+.+.+.+.+.#.G.,.,.,.<.<.,.6.j.;.;.;.;.;.;.5.h.,.,.,.<.<.,.0.q.O.O.O.@.O.O.e.0.,.,.,.<.,.,.h.8.,.,.,.<.,.,.A.,.;.;.;.;.",
"*.p p p p p p ` ^ 4 4 4 4 4 4 &.Y p p p p p p 4.v p p p p p p 8.p p p p p p p 0.p p p p p p p 3.+ + + + + + o 0.p p p p p p j @.",
"&.p p p p p p ) ^ 4 4 4 4 4 4 &.D p p p p p p <.k p p p p p p 6.8 p p p p p p 8.p p p p p p p :.o o o o o o   8.p p p p p p s O.",
"&.p p p p p p ) ^ 4 4 4 4 4 4 &.F p p p p p p <.k p p p p p p 8.p p p p p p p 8.p p p p p p p ,.o o o o o o . 0.p p p p p p h @.",
"8.6.8.I.6.6.6.8.8.6.8.J.6.6.6.8.8.6.0.M.3.3.3.5.3.3.w.c.6.6.6.8.8.6.i.h.6.6.6.8.6.6.h.i.6.6.6.8.6.6.c.0.3.3.3.6.6.6.G.8.3.3.3.5.",
"p p 8 8.p p p p p p a 8.p p p p p p k ;.< < < < < < V -.p p p p p p R ' p p p p p p &.R p p p p p p -.b 4 4 4 4 4 4 4.y < < < < ",
"p p 8 8.p p p p p p a 8.p p p p p p k ;.< < < < < < V -.p p p p p p R ' p p p p p p &.R p p p p p p -.b 4 4 4 4 4 4 4.y < < < < ",
"-.-.-.G.-.-.-.-.-.*.-.A.-.-.-.-.-.-.<.y.X.X.X.X.X.X.3.i.-.-.-.-.-.-.8.0.-.-.-.*.-.-.w.8.-.-.-.*.-.-.d.,.*.*.*.&.*.*.c.=.X.X.X.X.",
";.z z z z z z | &.B B B B B B ,.) B B B B B B 8.F B B B B B B 0.e e e e e e e q.B B B B B B B 0.B B B B B B B r.B B B B B B A 8.",
" .3 3 3 3 3 3 T ` p p p p p p &.D p p p p p p <.k p p p p p p 6.@ $ $ $ $ $ $ 5.p p p p p p p <.p p p p p p 8 0.p p p p p p s <.",
" .1 1 1 1 1 1 T ` p p p p p p &.D p p p p p p <.k p p p p p p 6.@ $ $ $ $ $ $ 5.p p p p p p p <.p p p p p p 8 0.p p p p p p s <.",
"7.1.1.c.6.6.6.0.0.6.8.c.3.3.3.7.7.3.5.y.1.1.1.9.5.1.7.h.6.6.6.w.6.6.w.w.6.6.6.r.6.6.i.w.6.6.6.r.6.6.h.7.1.1.1.q.1.1.y.8.6.6.8.w.",
"o o . 8.p p p p p p a 5.$ $ $ $ $ $ 0 @.o o o o o o M -.p p p p p p R ' p p p p p p &.R p p p p p p -.r o o o o o o 1.k p p p p ",
"o o . 8.p p p p p p a 5.$ $ $ $ $ $ 0 @.o o o o o o M -.p p p p p p R ' p p p p p p &.R p p p p p p -.r o o o o o o 1.k p p p p ",
"E E E c.` ` ` ` ` ` ' y.Q Q Q Q Q Q } q.E E E E E E ..0.` ` ` ` ` ` <.6.` ` ` ` ` ` 8.,.` ` ` ` ` ` 0.[ E E E E E E e.$.` ` ` ` "
};
